<?xml version="1.0" encoding="UTF-8" standalone="no"?>
<svg
   xmlns:dc="http://purl.org/dc/elements/1.1/"
   xmlns:cc="http://creativecommons.org/ns#"
   xmlns:rdf="http://www.w3.org/1999/02/22-rdf-syntax-ns#"
   xmlns:svg="http://www.w3.org/2000/svg"
   xmlns="http://www.w3.org/2000/svg"
   xmlns:sodipodi="http://sodipodi.sourceforge.net/DTD/sodipodi-0.dtd"
   xmlns:inkscape="http://www.inkscape.org/namespaces/inkscape"
   version="1.1"
   viewBox="0 0 22 22"
   id="svg16"
   sodipodi:docname="drive-removable-media-usb.svg"
   width="22"
   height="22"
   inkscape:version="1.0.2 (e86c870879, 2021-01-15)">
  <metadata
     id="metadata22">
    <rdf:RDF>
      <cc:Work
         rdf:about="">
        <dc:format>image/svg+xml</dc:format>
        <dc:type
           rdf:resource="http://purl.org/dc/dcmitype/StillImage" />
        <dc:title></dc:title>
      </cc:Work>
    </rdf:RDF>
  </metadata>
  <defs
     id="defs20" />
  <sodipodi:namedview
     pagecolor="#ffffff"
     bordercolor="#666666"
     borderopacity="1"
     objecttolerance="10"
     gridtolerance="10"
     guidetolerance="10"
     inkscape:pageopacity="0"
     inkscape:pageshadow="2"
     inkscape:window-width="2160"
     inkscape:window-height="1221"
     id="namedview18"
     showgrid="false"
     inkscape:zoom="32.482718"
     inkscape:cx="4.1633117"
     inkscape:cy="8.5996234"
     inkscape:window-x="0"
     inkscape:window-y="42"
     inkscape:window-maximized="1"
     inkscape:current-layer="svg16" />
  <g
     fill="#363636"
     id="g14"
     transform="translate(3,3)">
    <g
       transform="matrix(1,0,0,-1,0,16)"
       id="g8">
      <path
         d="m 4,11 v 5 h 8 v -5 h -1 v 4 H 5 v -4 z"
         id="path2" />
      <rect
         x="6"
         y="13"
         width="1"
         height="1"
         rx="0"
         ry="0"
         id="rect4" />
      <rect
         x="9"
         y="13"
         width="1"
         height="1"
         rx="0"
         ry="0"
         id="rect6" />
    </g>
    <path
       d="M 4,4 C 2.892,4 2,4.892 2,6 v 4 H 3 V 6 C 3,5.446 3.446,5 4,5 h 8 c 0.554,0 1,0.446 1,1 v 4 h 1 V 6 C 14,4.892 13.108,4 12,4 Z"
       id="path10" />
    <path
       d="m 2,10 c 0,3.324 2.676,6 6,6 3.324,0 6,-2.676 6,-6 h -1 c 0,2.77 -2.23,5 -5,5 -2.77,0 -5,-2.23 -5,-5 z"
       id="path12" />
  </g>
</svg>
