<?xml version="1.0" encoding="UTF-8" standalone="no"?>
<svg
   xmlns:dc="http://purl.org/dc/elements/1.1/"
   xmlns:cc="http://creativecommons.org/ns#"
   xmlns:rdf="http://www.w3.org/1999/02/22-rdf-syntax-ns#"
   xmlns:svg="http://www.w3.org/2000/svg"
   xmlns="http://www.w3.org/2000/svg"
   xmlns:sodipodi="http://sodipodi.sourceforge.net/DTD/sodipodi-0.dtd"
   xmlns:inkscape="http://www.inkscape.org/namespaces/inkscape"
   height="22"
   width="22"
   version="1.1"
   id="svg12"
   sodipodi:docname="drive-optical.svg"
   inkscape:version="1.0.2 (e86c870879, 2021-01-15)">
  <metadata
     id="metadata18">
    <rdf:RDF>
      <cc:Work
         rdf:about="">
        <dc:format>image/svg+xml</dc:format>
        <dc:type
           rdf:resource="http://purl.org/dc/dcmitype/StillImage" />
        <dc:title></dc:title>
      </cc:Work>
    </rdf:RDF>
  </metadata>
  <defs
     id="defs16" />
  <sodipodi:namedview
     pagecolor="#ffffff"
     bordercolor="#666666"
     borderopacity="1"
     objecttolerance="10"
     gridtolerance="10"
     guidetolerance="10"
     inkscape:pageopacity="0"
     inkscape:pageshadow="2"
     inkscape:window-width="2160"
     inkscape:window-height="1229"
     id="namedview14"
     showgrid="false"
     inkscape:zoom="32.181021"
     inkscape:cx="-1.9382887"
     inkscape:cy="9.0352004"
     inkscape:window-x="0"
     inkscape:window-y="42"
     inkscape:window-maximized="1"
     inkscape:current-layer="svg12" />
  <g
     color="#000000"
     transform="matrix(0.9998395,0,0,0.9998395,-1129.8149,-118.5506)"
     id="g10">
    <path
       d="m 1135,131.143 v 0.86 c 0,2.831 2.695,5.14 6,5.14 3.305,0 6,-2.309 6,-5.14 v -0.86 h -8 z m 1,0.857 h 3 v 0.003 c 0,0.941 0.902,1.713 2,1.713 1.099,0 2,-0.772 2,-1.713 V 132 h 3 v 0.003 c 0,2.37 -2.232,4.283 -5,4.283 -2.767,0 -5,-1.912 -5,-4.283 z m 4,0 h 2 v 0.003 c 0,0.478 -0.442,0.857 -1,0.857 -0.558,0 -1,-0.379 -1,-0.857 z"
       fill="#363636"
       font-family="sans-serif"
       font-weight="400"
       overflow="visible"
       style="line-height:normal;font-variant-ligatures:normal;font-variant-position:normal;font-variant-caps:normal;font-variant-numeric:normal;font-variant-alternates:normal;font-feature-settings:normal;text-indent:0;text-align:start;text-decoration:none;text-decoration-line:none;text-decoration-style:solid;text-decoration-color:#000000;text-transform:none;text-orientation:mixed;shape-padding:0;isolation:auto;mix-blend-mode:normal"
       white-space="normal"
       id="path2" />
    <path
       d="m 1135.48,122 c 0,0 -0.34,0.009 -0.69,0.197 a 1.564,1.564 0 0 0 -0.788,1.27 v -0.03 l -1,8 a 0.5,0.5 0 0 0 0,0.145 l 0.25,1.5 c 0.036,0.22 0.123,0.433 0.29,0.611 a 0.987,0.987 0 0 0 0.702,0.307 h 1.25 a 0.5,0.5 0 1 0 0,-1 h -1.224 c -0.01,-0.01 -0.023,-0.035 -0.031,-0.082 l -0.239,-1.428 0.99,-7.927 a 0.5,0.5 0 0 0 0,-0.03 c 0.023,-0.322 0.13,-0.382 0.262,-0.453 0.132,-0.07 0.258,-0.08 0.258,-0.08 h 10.99 a 0.5,0.5 0 0 0 0.035,-0.002 c 0,0 0.11,-0.002 0.223,0.053 0.112,0.054 0.22,0.094 0.244,0.48 a 0.5,0.5 0 0 0 0,0.031 l 0.99,7.928 -0.236,1.428 c -0.01,0.047 -0.027,0.072 -0.033,0.082 h -1.223 a 0.5,0.5 0 1 0 0,1 h 1.25 a 0.987,0.987 0 0 0 0.703,-0.307 c 0.166,-0.178 0.255,-0.392 0.291,-0.611 l 0.25,-1.5 a 0.5,0.5 0 0 0 0,-0.145 L 1148,123.469 c -0.042,-0.678 -0.435,-1.139 -0.807,-1.319 -0.371,-0.18 -0.726,-0.148 -0.726,-0.148 L 1146.5,122 h -11 a 0.5,0.5 0 0 0 -0.02,0 z"
       fill="#363636"
       fill-rule="evenodd"
       font-family="sans-serif"
       font-weight="400"
       overflow="visible"
       style="line-height:normal;font-variant-ligatures:normal;font-variant-position:normal;font-variant-caps:normal;font-variant-numeric:normal;font-variant-alternates:normal;font-feature-settings:normal;text-indent:0;text-align:start;text-decoration:none;text-decoration-line:none;text-decoration-style:solid;text-decoration-color:#000000;text-transform:none;text-orientation:mixed;shape-padding:0;isolation:auto;mix-blend-mode:normal"
       white-space="normal"
       id="path4" />
    <path
       d="m 1133.5,131 v 2 h 2 v -2 z m 13,0 v 2 h 2 v -2 z"
       fill="#363636"
       fill-rule="evenodd"
       font-family="sans-serif"
       font-weight="400"
       overflow="visible"
       style="line-height:normal;font-variant-ligatures:normal;font-variant-position:normal;font-variant-caps:normal;font-variant-numeric:normal;font-variant-alternates:normal;font-feature-settings:normal;text-indent:0;text-align:start;text-decoration:none;text-decoration-line:none;text-decoration-style:solid;text-decoration-color:#000000;text-transform:none;text-orientation:mixed;shape-padding:0;isolation:auto;mix-blend-mode:normal"
       white-space="normal"
       id="path6" />
    <path
       d="m 1135,131 v 1 h 12 v -1 z"
       fill="#363636"
       fill-rule="evenodd"
       font-family="sans-serif"
       font-weight="400"
       overflow="visible"
       style="line-height:normal;font-variant-ligatures:normal;font-variant-position:normal;font-variant-caps:normal;font-variant-numeric:normal;font-variant-alternates:normal;font-feature-settings:normal;text-indent:0;text-align:start;text-decoration:none;text-decoration-line:none;text-decoration-style:solid;text-decoration-color:#000000;text-transform:none;text-orientation:mixed;shape-padding:0;isolation:auto;mix-blend-mode:normal"
       white-space="normal"
       id="path8" />
  </g>
</svg>
