<?xml version="1.0" encoding="UTF-8" standalone="no"?>
<svg
   xmlns:dc="http://purl.org/dc/elements/1.1/"
   xmlns:cc="http://creativecommons.org/ns#"
   xmlns:rdf="http://www.w3.org/1999/02/22-rdf-syntax-ns#"
   xmlns:svg="http://www.w3.org/2000/svg"
   xmlns="http://www.w3.org/2000/svg"
   xmlns:sodipodi="http://sodipodi.sourceforge.net/DTD/sodipodi-0.dtd"
   xmlns:inkscape="http://www.inkscape.org/namespaces/inkscape"
   width="22"
   height="22"
   version="1.1"
   id="svg7"
   sodipodi:docname="folder-desktop.svg"
   inkscape:version="1.0.2 (e86c870879, 2021-01-15)">
  <metadata
     id="metadata11">
    <rdf:RDF>
      <cc:Work
         rdf:about="">
        <dc:format>image/svg+xml</dc:format>
        <dc:type
           rdf:resource="http://purl.org/dc/dcmitype/StillImage" />
      </cc:Work>
    </rdf:RDF>
  </metadata>
  <sodipodi:namedview
     pagecolor="#ffffff"
     bordercolor="#666666"
     borderopacity="1"
     objecttolerance="10"
     gridtolerance="10"
     guidetolerance="10"
     inkscape:pageopacity="0"
     inkscape:pageshadow="2"
     inkscape:window-width="2160"
     inkscape:window-height="1221"
     id="namedview9"
     showgrid="false"
     inkscape:zoom="33.409091"
     inkscape:cx="11"
     inkscape:cy="11"
     inkscape:window-x="0"
     inkscape:window-y="42"
     inkscape:window-maximized="1"
     inkscape:current-layer="svg7"
     inkscape:document-rotation="0" />
  <defs
     id="defs3">
    <style
       id="current-color-scheme"
       type="text/css">.ColorScheme-Text { color:#363636; }</style>
  </defs>
  <path
     clip-rule="evenodd"
     d="M 5.2857144,4.5713979 C 4.2994916,4.5713979 3.5,5.3708906 3.5,6.3571124 v 7.1428566 c 0,0.986214 0.7994859,1.785714 1.7857144,1.785714 H 9.7078559 L 8.9935606,16.714254 H 7.4285712 c -0.1972481,0 -0.3571481,0.159925 -0.3571481,0.357148 0,0.19721 0.1599,0.357148 0.3571481,0.357148 h 1.7779857 c 0.00497,7e-5 0.00995,7e-5 0.014906,0 h 3.5571081 c 0.005,7e-5 0.0099,7e-5 0.01491,0 h 1.778 c 0.19721,0 0.357148,-0.159925 0.357148,-0.357148 0,-0.197211 -0.159926,-0.357148 -0.357148,-0.357148 h -1.565044 l -0.71429,-1.428571 h 4.422144 c 0.98621,0 1.785709,-0.799499 1.785709,-1.785714 V 6.3571124 C 18.5,5.3708906 17.700501,4.5713979 16.714287,4.5713979 Z M 12.207855,16.714254 11.493571,15.285683 H 10.506427 L 9.7921419,16.714254 Z M 11.7065,14.571396 c 0.005,-7e-5 0.01,-7e-5 0.01503,0 h 4.992786 c 0.591719,0 1.07143,-0.479711 1.07143,-1.07143 V 6.3571124 c 0,-0.591731 -0.479711,-1.0714304 -1.07143,-1.0714304 H 5.2857144 c -0.5917322,0 -1.0714303,0.4796868 -1.0714303,1.0714304 v 7.1428566 c 0,0.591719 0.4796981,1.07143 1.0714303,1.07143 h 4.9927836 c 0.005,-7.1e-5 0.01,-7.1e-5 0.01491,0 z"
     fill="#000000"
     fill-rule="evenodd"
     id="path2"
     style="fill:#363636;fill-opacity:1;stroke-width:0.714284" />
</svg>
