<?xml version="1.0" encoding="UTF-8" standalone="no"?>
<svg
   xmlns:dc="http://purl.org/dc/elements/1.1/"
   xmlns:cc="http://creativecommons.org/ns#"
   xmlns:rdf="http://www.w3.org/1999/02/22-rdf-syntax-ns#"
   xmlns:svg="http://www.w3.org/2000/svg"
   xmlns="http://www.w3.org/2000/svg"
   xmlns:sodipodi="http://sodipodi.sourceforge.net/DTD/sodipodi-0.dtd"
   xmlns:inkscape="http://www.inkscape.org/namespaces/inkscape"
   width="22"
   height="22"
   version="1.1"
   id="svg7"
   sodipodi:docname="folder-download.svg"
   inkscape:version="1.0.2 (e86c870879, 2021-01-15)">
  <metadata
     id="metadata11">
    <rdf:RDF>
      <cc:Work
         rdf:about="">
        <dc:format>image/svg+xml</dc:format>
        <dc:type
           rdf:resource="http://purl.org/dc/dcmitype/StillImage" />
      </cc:Work>
    </rdf:RDF>
  </metadata>
  <sodipodi:namedview
     pagecolor="#ffffff"
     bordercolor="#666666"
     borderopacity="1"
     objecttolerance="10"
     gridtolerance="10"
     guidetolerance="10"
     inkscape:pageopacity="0"
     inkscape:pageshadow="2"
     inkscape:window-width="2160"
     inkscape:window-height="1349"
     id="namedview9"
     showgrid="false"
     inkscape:zoom="33.409091"
     inkscape:cx="11"
     inkscape:cy="11"
     inkscape:window-x="0"
     inkscape:window-y="42"
     inkscape:window-maximized="1"
     inkscape:current-layer="svg7"
     inkscape:document-rotation="0" />
  <defs
     id="defs3">
    <style
       id="current-color-scheme"
       type="text/css">.ColorScheme-Text { color:#363636; } .ColorScheme-Text { color:#363636; }</style>
  </defs>
  <path
     class="ColorScheme-Text"
     d="m 11,3 a 8,8 0 0 0 -8,8 8,8 0 0 0 8,8 8,8 0 0 0 8,-8 8,8 0 0 0 -8,-8 z m 0,1.0666667 A 6.9333333,6.9333333 0 0 1 17.933333,11 6.9333333,6.9333333 0 0 1 11,17.933333 6.9333333,6.9333333 0 0 1 4.0666667,11 6.9333333,6.9333333 0 0 1 11,4.0666667 Z m 0,3.2 c -0.295467,0 -0.533333,0.2378666 -0.533333,0.5333333 v 5.112533 L 9.11456,11.560427 c -0.208928,-0.208928 -0.5452371,-0.208928 -0.7541651,0 -0.208928,0.208928 -0.208928,0.545237 0,0.754165 l 2.2625061,2.262507 c 0.05014,0.05014 0.110123,0.08968 0.177088,0.116672 0.128363,0.05223 0.271638,0.05223 0.4,0 0.06697,-0.02699 0.126934,-0.06652 0.177088,-0.116672 l 2.262507,-2.262507 c 0.208928,-0.208928 0.208928,-0.545237 0,-0.754165 -0.208928,-0.208928 -0.545237,-0.208928 -0.754165,0 l -1.352107,1.352106 V 7.8 c 0,-0.2954667 -0.237867,-0.5333333 -0.533333,-0.5333333 z"
     fill="currentColor"
     id="path5"
     style="stroke-width:1.06667" />
</svg>
