<?xml version="1.0" encoding="UTF-8" standalone="no"?>
<svg
   xmlns:dc="http://purl.org/dc/elements/1.1/"
   xmlns:cc="http://creativecommons.org/ns#"
   xmlns:rdf="http://www.w3.org/1999/02/22-rdf-syntax-ns#"
   xmlns:svg="http://www.w3.org/2000/svg"
   xmlns="http://www.w3.org/2000/svg"
   xmlns:sodipodi="http://sodipodi.sourceforge.net/DTD/sodipodi-0.dtd"
   xmlns:inkscape="http://www.inkscape.org/namespaces/inkscape"
   version="1.1"
   id="Capa_1"
   x="0px"
   y="0px"
   viewBox="0 0 21.999999 21.999999"
   xml:space="preserve"
   sodipodi:docname="size.svg"
   inkscape:version="1.0.1 (3bc2e813f5, 2020-09-07)"
   width="22"
   height="22"><metadata
   id="metadata47"><rdf:RDF><cc:Work
       rdf:about=""><dc:format>image/svg+xml</dc:format><dc:type
         rdf:resource="http://purl.org/dc/dcmitype/StillImage" /><dc:title /></cc:Work></rdf:RDF></metadata><defs
   id="defs45" /><sodipodi:namedview
   pagecolor="#ffffff"
   bordercolor="#666666"
   borderopacity="1"
   objecttolerance="10"
   gridtolerance="10"
   guidetolerance="10"
   inkscape:pageopacity="0"
   inkscape:pageshadow="2"
   inkscape:window-width="2160"
   inkscape:window-height="1240"
   id="namedview43"
   showgrid="false"
   inkscape:zoom="27.304387"
   inkscape:cx="8.0739469"
   inkscape:cy="9.4351075"
   inkscape:window-x="0"
   inkscape:window-y="40"
   inkscape:window-maximized="1"
   inkscape:current-layer="Capa_1"
   inkscape:document-rotation="0" />
<g
   id="g10"
   style="fill:#000000;fill-opacity:1"
   transform="matrix(0.07429731,0,0,0.07429903,3,2.9998519)">
	<path
   d="m 7.5,65.088 c 4.143,0 7.5,-3.358 7.5,-7.5 V 25.61 l 48.305,48.295 c 1.465,1.464 3.384,2.196 5.303,2.196 1.92,0 3.84,-0.732 5.304,-2.197 2.929,-2.929 2.929,-7.678 -0.001,-10.606 L 25.604,15.002 h 31.985 c 4.142,0 7.5,-3.358 7.5,-7.5 0,-4.142 -3.357,-7.5 -7.5,-7.5 H 7.5 C 3.357,0.002 0,3.36 0,7.502 v 50.087 c 0,4.141 3.357,7.499 7.5,7.499 z"
   id="path2"
   style="fill:#000000;fill-opacity:1" />
	<path
   d="m 207.85,150.262 c -4.143,0 -7.5,3.358 -7.5,7.5 v 31.979 l -49.792,-49.792 c -2.93,-2.929 -7.678,-2.929 -10.607,0 -2.929,2.929 -2.929,7.678 0,10.606 l 49.791,49.791 h -31.977 c -4.143,0 -7.5,3.358 -7.5,7.5 0,4.142 3.357,7.5 7.5,7.5 h 50.086 c 4.143,0 7.5,-3.358 7.5,-7.5 v -50.084 c -0.001,-4.142 -3.359,-7.5 -7.501,-7.5 z"
   id="path4"
   style="fill:#000000;fill-opacity:1" />
	<path
   d="M 64.792,139.949 15.005,189.74 v -31.978 c 0,-4.142 -3.357,-7.5 -7.5,-7.5 -4.143,0 -7.5,3.358 -7.5,7.5 v 50.086 c 0,4.142 3.357,7.5 7.5,7.5 h 50.084 c 4.142,0 7.5,-3.358 7.5,-7.5 0,-4.142 -3.357,-7.5 -7.5,-7.5 H 25.611 l 49.788,-49.793 c 2.929,-2.929 2.929,-7.678 -0.001,-10.607 -2.927,-2.928 -7.676,-2.928 -10.606,0.001 z"
   id="path6"
   style="fill:#000000;fill-opacity:1" />
	<path
   d="m 207.85,0.002 h -50.086 c -4.143,0 -7.5,3.358 -7.5,7.5 0,4.142 3.357,7.5 7.5,7.5 h 31.979 l -48.298,48.301 c -2.929,2.929 -2.929,7.678 0.001,10.607 1.464,1.464 3.384,2.196 5.303,2.196 1.919,0 3.839,-0.733 5.304,-2.197 l 48.298,-48.301 v 31.98 c 0,4.142 3.357,7.5 7.5,7.5 4.143,0 7.5,-3.358 7.5,-7.5 V 7.502 c -0.001,-4.143 -3.359,-7.5 -7.501,-7.5 z"
   id="path8"
   style="fill:#000000;fill-opacity:1" />
</g>
<g
   id="g12">
</g>
<g
   id="g14">
</g>
<g
   id="g16">
</g>
<g
   id="g18">
</g>
<g
   id="g20">
</g>
<g
   id="g22">
</g>
<g
   id="g24">
</g>
<g
   id="g26">
</g>
<g
   id="g28">
</g>
<g
   id="g30">
</g>
<g
   id="g32">
</g>
<g
   id="g34">
</g>
<g
   id="g36">
</g>
<g
   id="g38">
</g>
<g
   id="g40">
</g>
</svg>
