<?xml version="1.0" encoding="UTF-8"?>
<svg width="22" height="22" version="1.1" xmlns="http://www.w3.org/2000/svg" xmlns:cc="http://creativecommons.org/ns#" xmlns:dc="http://purl.org/dc/elements/1.1/" xmlns:rdf="http://www.w3.org/1999/02/22-rdf-syntax-ns#">
 <metadata>
  <rdf:RDF>
   <cc:Work rdf:about="">
    <dc:format>image/svg+xml</dc:format>
    <dc:type rdf:resource="http://purl.org/dc/dcmitype/StillImage"/>
    <dc:title/>
   </cc:Work>
  </rdf:RDF>
 </metadata>
 <path d="m5.0184 12.569v0.85986c0 2.8305 2.6946 5.1392 5.999 5.1392 3.3045 0 5.999-2.3086 5.999-5.1392v-0.85986h-7.9987zm0.99984 0.85686h2.9995v3e-3c0 0.94085 0.90186 1.7127 1.9997 1.7127 1.0988 0 1.9997-0.77188 1.9997-1.7127v-3e-3h2.9995v3e-3c0 2.3696-2.2316 4.2823-4.9992 4.2823-2.7666 0-4.9992-1.9117-4.9992-4.2823zm3.9994 0h1.9997v3e-3c0 0.47792-0.44193 0.85686-0.99984 0.85686s-0.99984-0.37894-0.99984-0.85686z" color="#000000" fill="#363636" overflow="visible" stroke-width=".99984" style="font-feature-settings:normal;font-variant-alternates:normal;font-variant-caps:normal;font-variant-ligatures:normal;font-variant-numeric:normal;font-variant-position:normal;isolation:auto;mix-blend-mode:normal;shape-padding:0;text-decoration-color:#000000;text-decoration-line:none;text-decoration-style:solid;text-indent:0;text-orientation:mixed;text-transform:none" white-space="normal"/>
 <g transform="matrix(.99984 0 0 .99984 -1129.8 -118.55)" color="#000000" fill="#363636" fill-rule="evenodd">
  <path d="m1135.5 122s-0.34 9e-3 -0.69 0.197a1.564 1.564 0 0 0-0.788 1.27v-0.03l-1 8a0.5 0.5 0 0 0 0 0.145l0.25 1.5c0.036 0.22 0.123 0.433 0.29 0.611a0.987 0.987 0 0 0 0.702 0.307h1.25a0.5 0.5 0 1 0 0-1h-1.224c-0.01-0.01-0.023-0.035-0.031-0.082l-0.239-1.428 0.99-7.927a0.5 0.5 0 0 0 0-0.03c0.023-0.322 0.13-0.382 0.262-0.453 0.132-0.07 0.258-0.08 0.258-0.08h10.99a0.5 0.5 0 0 0 0.035-2e-3s0.11-2e-3 0.223 0.053c0.112 0.054 0.22 0.094 0.244 0.48a0.5 0.5 0 0 0 0 0.031l0.99 7.928-0.236 1.428c-0.01 0.047-0.027 0.072-0.033 0.082h-1.223a0.5 0.5 0 1 0 0 1h1.25a0.987 0.987 0 0 0 0.703-0.307c0.166-0.178 0.255-0.392 0.291-0.611l0.25-1.5a0.5 0.5 0 0 0 0-0.145l-0.994-7.968c-0.042-0.678-0.435-1.139-0.807-1.319-0.371-0.18-0.726-0.148-0.726-0.148l0.033-2e-3h-11a0.5 0.5 0 0 0-0.02 0z" overflow="visible" style="font-feature-settings:normal;font-variant-alternates:normal;font-variant-caps:normal;font-variant-ligatures:normal;font-variant-numeric:normal;font-variant-position:normal;isolation:auto;mix-blend-mode:normal;shape-padding:0;text-decoration-color:#000000;text-decoration-line:none;text-decoration-style:solid;text-indent:0;text-orientation:mixed;text-transform:none" white-space="normal"/>
  <path d="m1133.5 131v2h2v-2zm13 0v2h2v-2z" overflow="visible" style="font-feature-settings:normal;font-variant-alternates:normal;font-variant-caps:normal;font-variant-ligatures:normal;font-variant-numeric:normal;font-variant-position:normal;isolation:auto;mix-blend-mode:normal;shape-padding:0;text-decoration-color:#000000;text-decoration-line:none;text-decoration-style:solid;text-indent:0;text-orientation:mixed;text-transform:none" white-space="normal"/>
  <path d="m1135 131v1h12v-1z" overflow="visible" style="font-feature-settings:normal;font-variant-alternates:normal;font-variant-caps:normal;font-variant-ligatures:normal;font-variant-numeric:normal;font-variant-position:normal;isolation:auto;mix-blend-mode:normal;shape-padding:0;text-decoration-color:#000000;text-decoration-line:none;text-decoration-style:solid;text-indent:0;text-orientation:mixed;text-transform:none" white-space="normal"/>
 </g>
</svg>
