<?xml version="1.0" encoding="UTF-8" standalone="no"?>
<svg
   xmlns:dc="http://purl.org/dc/elements/1.1/"
   xmlns:cc="http://creativecommons.org/ns#"
   xmlns:rdf="http://www.w3.org/1999/02/22-rdf-syntax-ns#"
   xmlns:svg="http://www.w3.org/2000/svg"
   xmlns="http://www.w3.org/2000/svg"
   xmlns:sodipodi="http://sodipodi.sourceforge.net/DTD/sodipodi-0.dtd"
   xmlns:inkscape="http://www.inkscape.org/namespaces/inkscape"
   version="1.1"
   viewBox="0 0 22 22"
   id="svg15"
   sodipodi:docname="drive-harddisk-root.svg"
   width="22"
   height="22"
   inkscape:version="1.0.2 (e86c870879, 2021-01-15)">
  <metadata
     id="metadata19">
    <rdf:RDF>
      <cc:Work
         rdf:about="">
        <dc:format>image/svg+xml</dc:format>
        <dc:type
           rdf:resource="http://purl.org/dc/dcmitype/StillImage" />
        <dc:title></dc:title>
      </cc:Work>
    </rdf:RDF>
  </metadata>
  <sodipodi:namedview
     pagecolor="#ffffff"
     bordercolor="#666666"
     borderopacity="1"
     objecttolerance="10"
     gridtolerance="10"
     guidetolerance="10"
     inkscape:pageopacity="0"
     inkscape:pageshadow="2"
     inkscape:window-width="2160"
     inkscape:window-height="1221"
     id="namedview17"
     showgrid="false"
     inkscape:zoom="45.9375"
     inkscape:cx="8"
     inkscape:cy="8"
     inkscape:window-x="0"
     inkscape:window-y="42"
     inkscape:window-maximized="1"
     inkscape:current-layer="svg15" />
  <defs
     id="defs3">
    <style
       id="current-color-scheme"
       type="text/css">.ColorScheme-Text { color:#363636; }</style>
  </defs>
  <g
     class="ColorScheme-Text"
     fill="currentColor"
     id="g13"
     transform="translate(2.999918,2.49999)">
    <path
       d="M 6,2 C 4.5005,2 3.4575,3.0366 3.0684,4.0332 l -2.8691,7.4844 c -0.003232,0.0076 -0.004654,0.01581 -0.007813,0.02344 l -0.058594,0.15039 h 0.011719 c -0.08705,0.25475 -0.14453,0.52362 -0.14453,0.80859 0,1.385 1.115,2.5 2.5,2.5 h 11 c 1.385,0 2.5,-1.115 2.5,-2.5 0,-0.28498 -0.05748,-0.55384 -0.14453,-0.80859 h 0.01172 l -0.05859,-0.15039 -0.0039,-0.01563 c -0.0011,-0.0027 -0.0028,-0.0051 -0.0039,-0.0078 l -2.8692,-7.4844 c -0.38916,-0.99659 -1.4322,-2.0332 -2.9316,-2.0332 h -2 z m 0,1 h 4 c 1.108,0 1.7085,0.6499 2,1.3965 l 2.1875,5.7109 C 13.96789,10.044695 13.74028,9.99998 13.5,9.99998 h -11 c -0.24028,0 -0.46789,0.04472 -0.6875,0.10742 L 4,4.3965 C 4.29153,3.64992 4.892,3 6,3 Z m -3.5,8 h 11 c 0.831,0 1.5,0.669 1.5,1.5 0,0.831 -0.669,1.5 -1.5,1.5 H 2.5 C 1.669,14 1,13.331 1,12.5 1,11.669 1.669,11 2.5,11 Z"
       id="path5" />
    <circle
       cx="12.5"
       cy="12.5"
       r="0.5"
       id="circle7" />
    <circle
       cx="10.5"
       cy="12.5"
       r="0.5"
       id="circle9" />
    <circle
       cx="8.5"
       cy="12.5"
       r="0.5"
       id="circle11" />
  </g>
</svg>
