<?xml version="1.0" encoding="UTF-8"?>
<svg width="22" height="22" version="1.1" xmlns="http://www.w3.org/2000/svg" xmlns:cc="http://creativecommons.org/ns#" xmlns:dc="http://purl.org/dc/elements/1.1/" xmlns:rdf="http://www.w3.org/1999/02/22-rdf-syntax-ns#">
 <metadata>
  <rdf:RDF>
   <cc:Work rdf:about="">
    <dc:format>image/svg+xml</dc:format>
    <dc:type rdf:resource="http://purl.org/dc/dcmitype/StillImage"/>
    <dc:title/>
   </cc:Work>
  </rdf:RDF>
 </metadata>
 <defs>
  <style id="current-color-scheme" type="text/css">.ColorScheme-Text { color:#363636; }</style>
 </defs>
 <path d="m5.2857 4.5714c-0.98622 0-1.7857 0.79949-1.7857 1.7857v7.1429c0 0.98621 0.79949 1.7857 1.7857 1.7857h4.4221l-0.7143 1.4286h-1.565c-0.19725 0-0.35715 0.15992-0.35715 0.35715 0 0.19721 0.1599 0.35715 0.35715 0.35715h1.778c0.00497 7e-5 0.00995 7e-5 0.014906 0h3.5571c5e-3 7e-5 0.0099 7e-5 0.01491 0h1.778c0.19721 0 0.35715-0.15992 0.35715-0.35715 0-0.19721-0.15993-0.35715-0.35715-0.35715h-1.565l-0.71429-1.4286h4.4221c0.98621 0 1.7857-0.7995 1.7857-1.7857v-7.1429c0-0.98622-0.7995-1.7857-1.7857-1.7857zm6.9221 12.143-0.71428-1.4286h-0.98714l-0.71429 1.4286zm-0.50136-2.1429c5e-3 -7e-5 0.01-7e-5 0.01503 0h4.9928c0.59172 0 1.0714-0.47971 1.0714-1.0714v-7.1429c0-0.59173-0.47971-1.0714-1.0714-1.0714h-11.429c-0.59173 0-1.0714 0.47969-1.0714 1.0714v7.1429c0 0.59172 0.4797 1.0714 1.0714 1.0714h4.9928c5e-3 -7.1e-5 0.01-7.1e-5 0.01491 0z" clip-rule="evenodd" fill="#363636" fill-rule="evenodd" stroke-width=".71428"/>
</svg>
