<?xml version="1.0" encoding="UTF-8"?>
<svg width="22" height="22" version="1.1" xmlns="http://www.w3.org/2000/svg" xmlns:cc="http://creativecommons.org/ns#" xmlns:dc="http://purl.org/dc/elements/1.1/" xmlns:rdf="http://www.w3.org/1999/02/22-rdf-syntax-ns#">
 <metadata>
  <rdf:RDF>
   <cc:Work rdf:about="">
    <dc:format>image/svg+xml</dc:format>
    <dc:type rdf:resource="http://purl.org/dc/dcmitype/StillImage"/>
    <dc:title/>
   </cc:Work>
  </rdf:RDF>
 </metadata>
 <defs>
  <style id="current-color-scheme" type="text/css">.ColorScheme-Text { color:#363636; }</style>
 </defs>
 <path class="ColorScheme-Text" d="m11 3.0778c-0.13506 0-0.27007 0.051303-0.37356 0.15479l-7.4712 7.4733c-0.20698 0.20698-0.20698 0.54014 0 0.74712s0.54014 0.20698 0.74712 0l0.75744-0.75744v6.1132c0 1.1708 0.94258 2.1134 2.1134 2.1134h8.4536c1.1708 0 2.1134-0.94258 2.1134-2.1134v-6.1132l0.75744 0.75744c0.20698 0.20698 0.54014 0.20698 0.74712 0 0.20698-0.20698 0.20698-0.54014 0-0.74712l-7.4712-7.4733c-0.10348-0.10349-0.23851-0.15479-0.37356-0.15479zm0 1.2776 5.2835 5.2835v7.1699c0 0.58541-0.47129 1.0567-1.0567 1.0567h-2.1134v-3.1701c0-1.1708-0.94258-2.1134-2.1134-2.1134-1.1708 0-2.1134 0.94258-2.1134 2.1134v3.1701h-2.1134c-0.58541 0-1.0567-0.47129-1.0567-1.0567v-7.1699z" fill="#363636" stroke-width="1.0567"/>
</svg>
