<?xml version="1.0" encoding="UTF-8"?>
<svg width="22" height="22" version="1.1" xmlns="http://www.w3.org/2000/svg" xmlns:cc="http://creativecommons.org/ns#" xmlns:dc="http://purl.org/dc/elements/1.1/" xmlns:rdf="http://www.w3.org/1999/02/22-rdf-syntax-ns#">
 <metadata>
  <rdf:RDF>
   <cc:Work rdf:about="">
    <dc:format>image/svg+xml</dc:format>
    <dc:type rdf:resource="http://purl.org/dc/dcmitype/StillImage"/>
    <dc:title/>
   </cc:Work>
  </rdf:RDF>
 </metadata>
 <defs>
  <style id="current-color-scheme" type="text/css">.ColorScheme-Text { color:#363636; } .ColorScheme-Text { color:#363636; }</style>
 </defs>
 <path class="ColorScheme-Text" d="m11 3a8 8 0 0 0-8 8 8 8 0 0 0 8 8 8 8 0 0 0 8-8 8 8 0 0 0-8-8zm0 1.0667a6.9333 6.9333 0 0 1 6.9333 6.9333 6.9333 6.9333 0 0 1-6.9333 6.9333 6.9333 6.9333 0 0 1-6.9333-6.9333 6.9333 6.9333 0 0 1 6.9333-6.9333zm0 3.2c-0.29547 0-0.53333 0.23787-0.53333 0.53333v5.1125l-1.3521-1.3521c-0.20893-0.20893-0.54524-0.20893-0.75417 0s-0.20893 0.54524 0 0.75416l2.2625 2.2625c0.05014 0.05014 0.11012 0.08968 0.17709 0.11667 0.12836 0.05223 0.27164 0.05223 0.4 0 0.06697-0.02699 0.12693-0.06652 0.17709-0.11667l2.2625-2.2625c0.20893-0.20893 0.20893-0.54524 0-0.75416s-0.54524-0.20893-0.75416 0l-1.3521 1.3521v-5.1125c0-0.29547-0.23787-0.53333-0.53333-0.53333z" fill="#363636" stroke-width="1.0667"/>
</svg>
