<?xml version="1.0" encoding="UTF-8" standalone="no"?>
<svg
   xmlns:dc="http://purl.org/dc/elements/1.1/"
   xmlns:cc="http://creativecommons.org/ns#"
   xmlns:rdf="http://www.w3.org/1999/02/22-rdf-syntax-ns#"
   xmlns:svg="http://www.w3.org/2000/svg"
   xmlns="http://www.w3.org/2000/svg"
   xmlns:sodipodi="http://sodipodi.sourceforge.net/DTD/sodipodi-0.dtd"
   xmlns:inkscape="http://www.inkscape.org/namespaces/inkscape"
   version="1.1"
   id="Capa_1"
   x="0px"
   y="0px"
   viewBox="0 0 22 22"
   xml:space="preserve"
   sodipodi:docname="date.svg"
   inkscape:version="1.0.1 (3bc2e813f5, 2020-09-07)"
   width="22"
   height="22"><metadata
   id="metadata49"><rdf:RDF><cc:Work
       rdf:about=""><dc:format>image/svg+xml</dc:format><dc:type
         rdf:resource="http://purl.org/dc/dcmitype/StillImage" /><dc:title /></cc:Work></rdf:RDF></metadata><defs
   id="defs47" /><sodipodi:namedview
   pagecolor="#ffffff"
   bordercolor="#666666"
   borderopacity="1"
   objecttolerance="10"
   gridtolerance="10"
   guidetolerance="10"
   inkscape:pageopacity="0"
   inkscape:pageshadow="2"
   inkscape:window-width="2160"
   inkscape:window-height="1240"
   id="namedview45"
   showgrid="false"
   inkscape:zoom="8.7007221"
   inkscape:cx="13.007298"
   inkscape:cy="46.536501"
   inkscape:window-x="0"
   inkscape:window-y="40"
   inkscape:window-maximized="1"
   inkscape:current-layer="Capa_1"
   inkscape:document-rotation="0" />

<g
   id="g856"
   transform="matrix(0.03348219,0,0,0.03348219,2.9999999,2.9999999)"
   style="fill:#ffffff;fill-opacity:1"><g
     id="g6"
     style="fill:#ffffff;fill-opacity:1">
	<g
   id="g4"
   style="fill:#ffffff;fill-opacity:1">
		<path
   d="M 238.933,0 C 106.974,0 0,106.974 0,238.933 0,370.892 106.974,477.866 238.933,477.866 370.892,477.866 477.866,370.892 477.866,238.933 477.726,107.033 370.834,0.141 238.933,0 Z m 0,443.733 c -113.108,0 -204.8,-91.692 -204.8,-204.8 0,-113.108 91.692,-204.8 204.8,-204.8 113.108,0 204.8,91.692 204.8,204.8 -0.122,113.058 -91.742,204.678 -204.8,204.8 z"
   id="path2"
   style="fill:#ffffff;fill-opacity:1" />
	</g>
</g><g
     id="g12"
     style="fill:#ffffff;fill-opacity:1">
	<g
   id="g10"
   style="fill:#ffffff;fill-opacity:1">
		<path
   d="m 238.933,85.333 c -9.426,0 -17.067,7.641 -17.067,17.067 V 221.867 H 102.4 c -9.426,0 -17.067,7.641 -17.067,17.067 0,9.426 7.641,17.066 17.067,17.066 H 238.933 C 248.359,256 256,248.359 256,238.933 V 102.4 c 0,-9.426 -7.641,-17.067 -17.067,-17.067 z"
   id="path8"
   style="fill:#ffffff;fill-opacity:1" />
	</g>
</g></g>
<g
   id="g14">
</g>
<g
   id="g16">
</g>
<g
   id="g18">
</g>
<g
   id="g20">
</g>
<g
   id="g22">
</g>
<g
   id="g24">
</g>
<g
   id="g26">
</g>
<g
   id="g28">
</g>
<g
   id="g30">
</g>
<g
   id="g32">
</g>
<g
   id="g34">
</g>
<g
   id="g36">
</g>
<g
   id="g38">
</g>
<g
   id="g40">
</g>
<g
   id="g42">
</g>
</svg>
