<?xml version="1.0" encoding="UTF-8" standalone="no"?>
<svg
   xmlns:dc="http://purl.org/dc/elements/1.1/"
   xmlns:cc="http://creativecommons.org/ns#"
   xmlns:rdf="http://www.w3.org/1999/02/22-rdf-syntax-ns#"
   xmlns:svg="http://www.w3.org/2000/svg"
   xmlns="http://www.w3.org/2000/svg"
   xmlns:sodipodi="http://sodipodi.sourceforge.net/DTD/sodipodi-0.dtd"
   xmlns:inkscape="http://www.inkscape.org/namespaces/inkscape"
   width="22"
   height="22"
   version="1.1"
   id="svg7"
   sodipodi:docname="folder-desktop.svg"
   inkscape:version="1.0.2 (e86c870879, 2021-01-15)">
  <metadata
     id="metadata11">
    <rdf:RDF>
      <cc:Work
         rdf:about="">
        <dc:format>image/svg+xml</dc:format>
        <dc:type
           rdf:resource="http://purl.org/dc/dcmitype/StillImage" />
      </cc:Work>
    </rdf:RDF>
  </metadata>
  <sodipodi:namedview
     pagecolor="#ffffff"
     bordercolor="#666666"
     borderopacity="1"
     objecttolerance="10"
     gridtolerance="10"
     guidetolerance="10"
     inkscape:pageopacity="0"
     inkscape:pageshadow="2"
     inkscape:window-width="2160"
     inkscape:window-height="1221"
     id="namedview9"
     showgrid="false"
     inkscape:zoom="33.409091"
     inkscape:cx="11"
     inkscape:cy="11"
     inkscape:window-x="0"
     inkscape:window-y="42"
     inkscape:window-maximized="1"
     inkscape:current-layer="svg7"
     inkscape:document-rotation="0" />
  <defs
     id="defs3">
    <style
       id="current-color-scheme"
       type="text/css">.ColorScheme-Text { color:#ffffff; }</style>
  </defs>
  <path
     clip-rule="evenodd"
     d="M 5.2857143,4.5713979 C 4.2994915,4.5713979 3.5,5.3708906 3.5,6.3571123 v 7.1428567 c 0,0.986215 0.799486,1.785715 1.7857143,1.785715 H 9.707856 L 8.9935607,16.714255 H 7.4285712 c -0.197248,0 -0.357148,0.159923 -0.357148,0.357148 0,0.197209 0.1599,0.357146 0.357148,0.357146 h 1.7779857 c 0.00497,7.1e-5 0.00994,7.1e-5 0.014906,0 H 12.77857 c 0.0049,7.1e-5 0.0099,7.1e-5 0.0149,0 h 1.777999 c 0.197211,0 0.357147,-0.159924 0.357147,-0.357146 0,-0.197212 -0.159924,-0.357148 -0.357147,-0.357148 h -1.56504 l -0.71429,-1.428571 h 4.422143 c 0.986219,0 1.785718,-0.799499 1.785718,-1.785715 V 6.3571123 C 18.5,5.3708906 17.700501,4.5713979 16.714286,4.5713979 Z M 12.207856,16.714255 11.493572,15.285684 H 10.506427 L 9.7921419,16.714255 Z M 11.7065,14.571397 c 0.0049,-7.1e-5 0.01,-7.1e-5 0.01503,0 h 4.992787 c 0.591718,0 1.071429,-0.479712 1.071429,-1.071431 V 6.3571123 c 0,-0.5917309 -0.479711,-1.0714304 -1.071429,-1.0714304 H 5.2857143 c -0.5917321,0 -1.0714303,0.479687 -1.0714303,1.0714304 v 7.1428567 c 0,0.591719 0.4796982,1.071431 1.0714303,1.071431 h 4.9927837 c 0.005,-7.2e-5 0.01001,-7.2e-5 0.01491,0 z"
     fill="#ffffff"
     fill-rule="evenodd"
     id="path2"
     style="fill:#ffffff;fill-opacity:1;stroke-width:0.714284" />
</svg>
