<?xml version="1.0" encoding="UTF-8" standalone="no"?>
<svg
   xmlns:dc="http://purl.org/dc/elements/1.1/"
   xmlns:cc="http://creativecommons.org/ns#"
   xmlns:rdf="http://www.w3.org/1999/02/22-rdf-syntax-ns#"
   xmlns:svg="http://www.w3.org/2000/svg"
   xmlns="http://www.w3.org/2000/svg"
   xmlns:sodipodi="http://sodipodi.sourceforge.net/DTD/sodipodi-0.dtd"
   xmlns:inkscape="http://www.inkscape.org/namespaces/inkscape"
   width="22"
   height="22"
   version="1.1"
   id="svg7"
   sodipodi:docname="folder-music.svg"
   inkscape:version="1.0.2 (e86c870879, 2021-01-15)">
  <metadata
     id="metadata11">
    <rdf:RDF>
      <cc:Work
         rdf:about="">
        <dc:format>image/svg+xml</dc:format>
        <dc:type
           rdf:resource="http://purl.org/dc/dcmitype/StillImage" />
      </cc:Work>
    </rdf:RDF>
  </metadata>
  <sodipodi:namedview
     pagecolor="#ffffff"
     bordercolor="#666666"
     borderopacity="1"
     objecttolerance="10"
     gridtolerance="10"
     guidetolerance="10"
     inkscape:pageopacity="0"
     inkscape:pageshadow="2"
     inkscape:window-width="2160"
     inkscape:window-height="1221"
     id="namedview9"
     showgrid="false"
     inkscape:zoom="33.409091"
     inkscape:cx="11"
     inkscape:cy="11"
     inkscape:window-x="0"
     inkscape:window-y="42"
     inkscape:window-maximized="1"
     inkscape:current-layer="svg7" />
  <defs
     id="defs3">
    <style
       id="current-color-scheme"
       type="text/css">.ColorScheme-Text { color:#ffffff; } .ColorScheme-Highlight { color:#ffffff; }</style>
  </defs>
  <path
     class="ColorScheme-Text"
     fill="currentColor"
     d="m16.375 3-7.3774 1.9053c-0.55422 0.14836-1.0009 0.73837-1.0009 1.3116v9.0892c-0.562-0.294-1.2839-0.41299-2.0322-0.21874-1.3503 0.35052-2.1966 1.4838-1.9071 2.5303 0.28945 1.0465 1.6203 1.6309 2.9706 1.2804 1.0773-0.27964 1.82-1.071 1.9384-1.9053l0.031278-8.5892 7.0021-1.8741v6.7776c-0.562-0.294-1.2831-0.41299-2.0314-0.21874-1.3503 0.35052-2.1966 1.4838-1.9071 2.5303 0.28945 1.0465 1.6194 1.6309 2.9697 1.2804 1.0773-0.27964 1.82-1.071 1.9384-1.9053l0.03128-11.181c0-0.42993-0.26627-0.752-0.62557-0.81248z"
     id="path5"
     style="fill:#ffffff;fill-opacity:1" />
</svg>
