<?xml version="1.0" encoding="UTF-8" standalone="no"?>
<svg
   xmlns:dc="http://purl.org/dc/elements/1.1/"
   xmlns:cc="http://creativecommons.org/ns#"
   xmlns:rdf="http://www.w3.org/1999/02/22-rdf-syntax-ns#"
   xmlns:svg="http://www.w3.org/2000/svg"
   xmlns="http://www.w3.org/2000/svg"
   xmlns:sodipodi="http://sodipodi.sourceforge.net/DTD/sodipodi-0.dtd"
   xmlns:inkscape="http://www.inkscape.org/namespaces/inkscape"
   width="22"
   height="22"
   version="1.1"
   id="svg7"
   sodipodi:docname="folder-home.svg"
   inkscape:version="1.0.2 (e86c870879, 2021-01-15)">
  <metadata
     id="metadata11">
    <rdf:RDF>
      <cc:Work
         rdf:about="">
        <dc:format>image/svg+xml</dc:format>
        <dc:type
           rdf:resource="http://purl.org/dc/dcmitype/StillImage" />
      </cc:Work>
    </rdf:RDF>
  </metadata>
  <sodipodi:namedview
     pagecolor="#ffffff"
     bordercolor="#666666"
     borderopacity="1"
     objecttolerance="10"
     gridtolerance="10"
     guidetolerance="10"
     inkscape:pageopacity="0"
     inkscape:pageshadow="2"
     inkscape:window-width="2160"
     inkscape:window-height="1349"
     id="namedview9"
     showgrid="false"
     inkscape:zoom="33.409091"
     inkscape:cx="11"
     inkscape:cy="11"
     inkscape:window-x="0"
     inkscape:window-y="42"
     inkscape:window-maximized="1"
     inkscape:current-layer="svg7"
     inkscape:document-rotation="0" />
  <defs
     id="defs3">
    <style
       id="current-color-scheme"
       type="text/css">.ColorScheme-Text { color:#ffffff; }</style>
  </defs>
  <path
     class="ColorScheme-Text"
     d="m 10.999989,3.077802 c -0.135057,0 -0.270072,0.051303 -0.373565,0.1547856 L 3.1552319,10.705893 c -0.206976,0.206976 -0.206976,0.540144 0,0.74712 0.206976,0.206976 0.5401432,0.206976 0.7471193,0 L 4.6597944,10.69557 v 6.113226 c 0,1.170824 0.9425772,2.113402 2.1134018,2.113402 h 8.4536068 c 1.170825,0 2.113402,-0.942578 2.113402,-2.113402 V 10.69557 l 0.757443,0.757443 c 0.206976,0.206976 0.540143,0.206976 0.747119,0 0.206977,-0.206976 0.206977,-0.540144 0,-0.74712 L 11.373575,3.2325876 C 11.270092,3.1291006 11.135067,3.077802 11.00001,3.077802 Z m 0,1.2775514 5.283505,5.2835046 v 7.169927 c 0,0.585412 -0.471289,1.056701 -1.056701,1.056701 h -2.113402 v -3.170103 c 0,-1.170824 -0.942577,-2.113402 -2.113402,-2.113402 -1.1708246,0 -2.1134015,0.942578 -2.1134015,2.113402 v 3.170103 H 6.7731857 c -0.5854124,0 -1.056701,-0.471289 -1.056701,-1.056701 V 9.638858 Z"
     fill="currentColor"
     id="path5"
     style="fill:#ffffff;fill-opacity:1;stroke-width:1.0567" />
</svg>
